# xmcd CD database file
#
# Track frame offsets:
#	150
#	14187
#	31715
#	46713
#	57636
#	74156
#	91587
#	108145
#	128322
#	139551
#	156807
#	167030
#	180481
#	200924
#	218881
#	232667
#	246623
#	266249
#
# Disc length: 3740 seconds
#
# Revision: 3
# Processed by: cddbd v1.5.2PL0 Copyright (c) Steve Scherf et al.
# Submitted via: CDex 1.51
#
DISCID=fb0e9a12
DTITLE=Henri Salvador - Performance!
DYEAR=2002
DGENRE=Chanson
TTITLE0=Bonjour Et Bienvenue (Live)
TTITLE1=Il Fait Dimanche (Live)
TTITLE2=Ma Doudou (Avec Laurent Voulzy) (Live)
TTITLE3=Qu'elle Est Con (Live)
TTITLE4=Mademoiselle (Live)
TTITLE5=Muraille De Chine (Live)
TTITLE6=Quoique l'On Fasse (Live)
TTITLE7=J'ai Beaucoup Trop Envie De Toi (Live)
TTITLE8=Chiche (Avec Bireli Lagrène) (Live)
TTITLE9=Tu Es Entrée Dans Mon Ame (Avec Bireli Lagrène) (Live)
TTITLE10=Oléo (Live)
TTITLE11=Duke, Basie Et Louis (Live)
TTITLE12=All I Really Want (Avec Lisa Ekdahl) (Live)
TTITLE13=Syracuse (Live)
TTITLE14=Jardin d'Hiver (Live)
TTITLE15=Le Loup, La Biche Et Le Chevalier (Chanson Douce) (Live)
TTITLE16=Avec Le Temps (Live)
TTITLE17=Bonsoir Les Amis (Live)
EXTD=YEAR: 2002
EXTT0=
EXTT1=
EXTT2=
EXTT3=
EXTT4=
EXTT5=
EXTT6=
EXTT7=
EXTT8=
EXTT9=
EXTT10=
EXTT11=
EXTT12=
EXTT13=
EXTT14=
EXTT15=
EXTT16=
EXTT17=
PLAYORDER=
